# xmcd
#
# Track frame offsets:
# 150
# 9704
# 29424
# 54061
# 70815
# 86716
# 100950
# 125325
# 139788
# 150586
# 168813
# 195114
# 209042
# 222091
# 237307
#
# Disc length: 3430 seconds
#
#
# Revision: 0
# Processed by: cddbd v1.5.2PL0 Copyright (c) Steve Scherf et al.
# Submitted via: FreeRIP 2.951 
#
DISCID=c50d640f
DTITLE=Various Artist - cd 1
DYEAR=1900
DGENRE=Native American
TTITLE0=MIC-MAC - Spirit chant American Native Micmac
TTITLE1=Jerry McDonald - Mohawk Drums of the Iroquois pigeon
TTITLE2=Joanne Shenandoah - Iroquois Social Songs
TTITLE3=Joanne Shenandoah - Kanekotsy tha?
TTITLE4=Joanne Shenandoah - Oneida Iroquois
TTITLE5=Various Artist - Lakota Wedding Song
TTITLE6=Sacred Spirit - Yo-Hey-O-Hee - Brandshing the Tomahawk
TTITLE7=Native American Indian - Mountain Spirit Song (Apache)
TTITLE8=Ethnic Music Compilations - Lighting Song (Apache)
TTITLE9=Elan Michaels - Buffalo Dance
TTITLE10=Native American Indian - Call of The Medicine Drum
TTITLE11=Jerry McDonald - Dancers Call - Iroquois Shaking Bush Song (Mohawk Transitions)
TTITLE12=Julia Begaye - Navajo
TTITLE13=Iron Wood Singers - Sioux Flag song
TTITLE14=Sacred Spirit - Yeha-Noha
EXTD=
EXTT0=
EXTT1=
EXTT2=
EXTT3=
EXTT4=
EXTT5=
EXTT6=
EXTT7=
EXTT8=
EXTT9=
EXTT10=
EXTT11=
EXTT12=
EXTT13=
EXTT14=
PLAYORDER=
